<svg xmlns="http://www.w3.org/2000/svg" xmlns:xlink="http://www.w3.org/1999/xlink"><defs><clipPath id="clip0"><path transform="rotate(-90 9 18)" fill="#fff" d="M9 18h12v7.4H9z"/></clipPath></defs><symbol id="icon-arrowdown"><g clip-path="url(#clip0)"><path fill-rule="evenodd" clip-rule="evenodd" d="M9 7.4l4.6 4.6L9 16.6l1.4 1.4 6-6-6-6L9 7.4z" fill="#2C2E3F" fill-opacity=".5"/></g></symbol><symbol id="icon-cross"><path d="M0 0h50v52H0z"/><path d="M14 37.7L36 15m0 22.7L14 15" stroke="#141517" stroke-opacity=".2" stroke-linecap="round" stroke-linejoin="round"/></symbol><symbol id="icon-mail"><path d="M24.2 0H1.8C.8 0 0 .8 0 1.8v16.4c0 1 .8 1.8 1.8 1.8h22.4c1 0 1.8-.8 1.8-1.8V1.8c0-1-.8-1.8-1.8-1.8zm0 17l-4.6-4.6a.9.9 0 00-1.3 0c-.3.3-.3.8 0 1.2l4.7 4.6H3l4.7-4.6c.3-.4.3-.9 0-1.2a.9.9 0 00-1.3 0L1.8 17V5.7l10.6 8 .5.2c.2 0 .4 0 .6-.2l10.7-8V17zm0-15.2v1.7L13 11.8 1.8 3.5V1.8h22.4z" fill="#0AD9C6"/></symbol><symbol id="icon-menu" viewBox="0 0 30 30">
<path fill-rule="evenodd" clip-rule="evenodd" d="M3.75 21H26.25V20H3.75V21ZM3.75 14.75H26.25V13.75H3.75V14.75ZM3.75 7.5V8.5H26.25V7.5H3.75Z" fill="black"/>
</symbol><symbol id="icon-phone"><path d="M3.5 6.7a5 5 0 01.8-3.3c.7-.8 1.4-1.3 2.4-1.6.8-.2 1.3 0 1.6 1 .3 1.3.8 2.6 1 4a3 3 0 01-.8 2c-1.1 1-.9 1.9 0 3.5.2.5.6 1.4 1.4 2.6.8 1.2 1.3 1.9 2.3 1.3 1.2-.6 2-.2 3 .8l1.8 2c.9 1 .9 1.7.2 2.4-1.3 1.3-3.3 1.8-4.8.9a9.7 9.7 0 01-2.3-1.9A30 30 0 013.8 9a11 11 0 01-.3-2.2z" stroke="#0AD9C6" stroke-width="2" stroke-miterlimit="10"/></symbol></svg>
